<?xml version="1.0" encoding="utf-8"?>
<!-- Generator: Adobe Illustrator 25.0.1, SVG Export Plug-In . SVG Version: 6.00 Build 0)  -->
<svg version="1.0" id="Layer_1" xmlns="http://www.w3.org/2000/svg" xmlns:xlink="http://www.w3.org/1999/xlink" x="0px" y="0px"
	 viewBox="0 0 908 584" style="enable-background:new 0 0 908 584;" xml:space="preserve">
<style type="text/css">
	.st0{fill:#121646;}
	.st1{fill:#FF3E00;}
	.st2{fill:#FFFFFF;}
	.st3{fill:none;}
</style>
<path class="st0" d="M762.1,335.1c16.6,0,23.2-5.6,23.2-16.8c0-10.3-7.4-17.3-23.8-17.3h-37v34.1H762.1z M724.4,248.3v28.5h38.1
	c13.1,0,17.7-6.5,17.7-14c0-7.9-5.9-14.5-19.9-14.5H724.4z M697.3,361.7c-1.4-0.1-2.6-1.3-2.6-2.8V224.5c0.1-1.5,1.2-2.7,2.6-2.8
	h67.2c29.8,0,45.5,16.8,45.5,38.5c0,11.2-4.2,20.1-11.4,26.4v0.4c10.3,7,16.4,18.2,16.4,32.7c0,26.8-18.4,42-49.9,42L697.3,361.7z"
	/>
<path class="st0" d="M576.1,248.3v86.8h28.7c27.8,0,42.5-16.8,42.5-43.4s-17.9-43.4-42.9-43.4H576.1z M549,361.7
	c-1.4-0.1-2.6-1.3-2.6-2.8V224.5c0.1-1.5,1.2-2.7,2.6-2.8h55.3c41.6,0,72.6,27.3,72.6,70c0,42.2-26.3,70-72.2,70L549,361.7z"/>
<path class="st0" d="M443.3,303.4v31.7h77c1.3,0,3,1.9,3,3.3v20.1c0,1.4-1.8,3.3-3,3.3H416.2c-1.5-0.1-2.6-1.3-2.6-2.8V224.5
	c0.1-1.5,1.2-2.7,2.6-2.8H519c1.3,0,3.1,1.9,3.1,3.3v20c0,1.4-1.8,3.3-3.1,3.3h-75.7v28.5h69.1c1.3,0,3.1,1.9,3.1,3.3v20.1
	c0,1.4-1.8,3.3-3.1,3.3L443.3,303.4z"/>
<circle class="st1" cx="228.8" cy="292" r="135.8"/>
<path class="st2" d="M313.6,265.3c0-13.1-11-22.6-24.4-21.3l-20.5,2c-2.2,0.2-3.8,2-3.9,4.2v75.1c0,1.9,1.5,3.4,3.4,3.4
	c0.2,0,0.3,0,0.5,0l20.5-2c13.5-1.3,24.4-13,24.4-26.1c0.1-6.6-2.9-12.8-8.2-16.9C310.5,279,313.5,272.3,313.6,265.3"/>
<path class="st2" d="M188.9,246.1l-20.5-2c-13.5-1.3-24.4,8.2-24.4,21.2c0.1,7,3,13.7,8.1,18.5c-5.2,4-8.2,10.3-8.1,16.9
	c0,13.1,10.9,24.8,24.4,26.1l20.5,2c1.9,0.3,3.6-1,3.9-2.9c0-0.2,0-0.3,0-0.5v-75.1C192.7,248.1,191,246.3,188.9,246.1"/>
<path class="st2" d="M228.8,266.5h-20.5c-2.1,0-3.9,1.6-3.9,3.7c0,0,0,0,0,0v56.3c0,2.2,1.6,4.4,3.9,4.4h20.6
	c-0.2,4.1-6.1,7.2-19.8,8.7l-1.6,0.1c-0.9,0.1-3.1,0-3.1,3.9v1c0,2.1,1.7,3.9,3.9,3.9h20.5c13.5,0,24.5-10.6,24.5-23.6V290
	C253.2,277,242.2,266.5,228.8,266.5"/>
<rect x="72" y="135" class="st3" width="764" height="314"/>
</svg>
